<svg xmlns="http://www.w3.org/2000/svg" width="900" height="480" viewBox="0 0 900 480"><style>text{font:14px sans-serif}circle{fill:#2563eb;opacity:.65}line{stroke:#111}</style><text x="450.0" y="25" text-anchor="middle">Canonical Fast speedup</text><line x1="60" y1="420" x2="840" y2="420"/><line x1="60" y1="60" x2="60" y2="420"/><circle cx="60.0" cy="124.3" r="3"/><circle cx="66.7" cy="309.5" r="3"/><circle cx="73.4" cy="283.2" r="3"/><circle cx="80.2" cy="302.1" r="3"/><circle cx="86.9" cy="216.8" r="3"/><circle cx="93.6" cy="309.7" r="3"/><circle cx="100.3" cy="245.2" r="3"/><circle cx="107.1" cy="339.4" r="3"/><circle cx="113.8" cy="249.4" r="3"/><circle cx="120.5" cy="222.2" r="3"/><circle cx="127.2" cy="286.5" r="3"/><circle cx="134.0" cy="204.3" r="3"/><circle cx="140.7" cy="202.6" r="3"/><circle cx="147.4" cy="230.0" r="3"/><circle cx="154.1" cy="275.4" r="3"/><circle cx="160.9" cy="255.4" r="3"/><circle cx="167.6" cy="252.1" r="3"/><circle cx="174.3" cy="209.8" r="3"/><circle cx="181.0" cy="364.2" r="3"/><circle cx="187.8" cy="420.0" r="3"/><circle cx="194.5" cy="262.4" r="3"/><circle cx="201.2" cy="225.0" r="3"/><circle cx="207.9" cy="227.5" r="3"/><circle cx="214.7" cy="262.0" r="3"/><circle cx="221.4" cy="235.7" r="3"/><circle cx="228.1" cy="244.6" r="3"/><circle cx="234.8" cy="222.2" r="3"/><circle cx="241.6" cy="200.7" r="3"/><circle cx="248.3" cy="210.9" r="3"/><circle cx="255.0" cy="260.4" r="3"/><circle cx="261.7" cy="233.7" r="3"/><circle cx="268.4" cy="288.7" r="3"/><circle cx="275.2" cy="274.3" r="3"/><circle cx="281.9" cy="258.3" r="3"/><circle cx="288.6" cy="213.3" r="3"/><circle cx="295.3" cy="222.5" r="3"/><circle cx="302.1" cy="231.7" r="3"/><circle cx="308.8" cy="276.7" r="3"/><circle cx="315.5" cy="257.8" r="3"/><circle cx="322.2" cy="259.1" r="3"/><circle cx="329.0" cy="236.5" r="3"/><circle cx="335.7" cy="249.0" r="3"/><circle cx="342.4" cy="230.3" r="3"/><circle cx="349.1" cy="60.0" r="3"/><circle cx="355.9" cy="206.0" r="3"/><circle cx="362.6" cy="319.9" r="3"/><circle cx="369.3" cy="288.1" r="3"/><circle cx="376.0" cy="278.2" r="3"/><circle cx="382.8" cy="184.4" r="3"/><circle cx="389.5" cy="219.3" r="3"/><circle cx="396.2" cy="197.1" r="3"/><circle cx="402.9" cy="241.1" r="3"/><circle cx="409.7" cy="234.0" r="3"/><circle cx="416.4" cy="228.6" r="3"/><circle cx="423.1" cy="212.0" r="3"/><circle cx="429.8" cy="229.5" r="3"/><circle cx="436.6" cy="302.6" r="3"/><circle cx="443.3" cy="270.4" r="3"/><circle cx="450.0" cy="214.9" r="3"/><circle cx="456.7" cy="247.3" r="3"/><circle cx="463.4" cy="199.1" r="3"/><circle cx="470.2" cy="207.3" r="3"/><circle cx="476.9" cy="229.8" r="3"/><circle cx="483.6" cy="136.0" r="3"/><circle cx="490.3" cy="150.0" r="3"/><circle cx="497.1" cy="222.5" r="3"/><circle cx="503.8" cy="181.9" r="3"/><circle cx="510.5" cy="180.0" r="3"/><circle cx="517.2" cy="285.1" r="3"/><circle cx="524.0" cy="277.5" r="3"/><circle cx="530.7" cy="212.5" r="3"/><circle cx="537.4" cy="190.1" r="3"/><circle cx="544.1" cy="249.8" r="3"/><circle cx="550.9" cy="210.3" r="3"/><circle cx="557.6" cy="235.8" r="3"/><circle cx="564.3" cy="301.4" r="3"/><circle cx="571.0" cy="217.9" r="3"/><circle cx="577.8" cy="258.8" r="3"/><circle cx="584.5" cy="214.0" r="3"/><circle cx="591.2" cy="182.3" r="3"/><circle cx="597.9" cy="173.9" r="3"/><circle cx="604.7" cy="195.8" r="3"/><circle cx="611.4" cy="229.8" r="3"/><circle cx="618.1" cy="258.2" r="3"/><circle cx="624.8" cy="213.1" r="3"/><circle cx="631.6" cy="239.9" r="3"/><circle cx="638.3" cy="279.8" r="3"/><circle cx="645.0" cy="257.9" r="3"/><circle cx="651.7" cy="198.5" r="3"/><circle cx="658.4" cy="162.7" r="3"/><circle cx="665.2" cy="272.6" r="3"/><circle cx="671.9" cy="213.4" r="3"/><circle cx="678.6" cy="257.4" r="3"/><circle cx="685.3" cy="300.3" r="3"/><circle cx="692.1" cy="239.5" r="3"/><circle cx="698.8" cy="332.4" r="3"/><circle cx="705.5" cy="339.1" r="3"/><circle cx="712.2" cy="172.0" r="3"/><circle cx="719.0" cy="205.1" r="3"/><circle cx="725.7" cy="259.4" r="3"/><circle cx="732.4" cy="273.2" r="3"/><circle cx="739.1" cy="248.4" r="3"/><circle cx="745.9" cy="236.9" r="3"/><circle cx="752.6" cy="204.8" r="3"/><circle cx="759.3" cy="254.7" r="3"/><circle cx="766.0" cy="163.2" r="3"/><circle cx="772.8" cy="211.5" r="3"/><circle cx="779.5" cy="238.3" r="3"/><circle cx="786.2" cy="231.9" r="3"/><circle cx="792.9" cy="279.1" r="3"/><circle cx="799.7" cy="198.6" r="3"/><circle cx="806.4" cy="303.3" r="3"/><circle cx="813.1" cy="332.2" r="3"/><circle cx="819.8" cy="183.2" r="3"/><circle cx="826.6" cy="270.5" r="3"/><circle cx="833.3" cy="256.2" r="3"/><circle cx="840.0" cy="213.4" r="3"/><text x="450.0" y="468" text-anchor="middle">case</text><text x="16" y="240.0" transform="rotate(-90 16 240.0)" text-anchor="middle">speedup</text></svg>