<svg xmlns="http://www.w3.org/2000/svg" width="900" height="480" viewBox="0 0 900 480"><style>text{font:14px sans-serif}circle{fill:#2563eb;opacity:.65}line{stroke:#111}</style><text x="450.0" y="25" text-anchor="middle">Hash updates vs H3 runtime</text><line x1="60" y1="420" x2="840" y2="420"/><line x1="60" y1="60" x2="60" y2="420"/><circle cx="840.0" cy="60.0" r="3"/><circle cx="60.0" cy="420.0" r="3"/><circle cx="97.1" cy="403.8" r="3"/><circle cx="450.0" cy="267.7" r="3"/><circle cx="580.0" cy="210.8" r="3"/><circle cx="710.0" cy="173.8" r="3"/><circle cx="840.0" cy="125.5" r="3"/><circle cx="171.4" cy="374.5" r="3"/><circle cx="301.4" cy="323.3" r="3"/><circle cx="431.4" cy="260.7" r="3"/><circle cx="561.4" cy="225.4" r="3"/><circle cx="691.4" cy="175.0" r="3"/><circle cx="821.4" cy="120.7" r="3"/><circle cx="152.9" cy="384.6" r="3"/><circle cx="282.9" cy="333.8" r="3"/><circle cx="412.9" cy="281.0" r="3"/><circle cx="542.9" cy="232.3" r="3"/><circle cx="672.9" cy="171.1" r="3"/><circle cx="802.9" cy="134.3" r="3"/><circle cx="134.3" cy="389.7" r="3"/><circle cx="264.3" cy="335.8" r="3"/><circle cx="394.3" cy="291.5" r="3"/><circle cx="524.3" cy="197.3" r="3"/><circle cx="654.3" cy="185.2" r="3"/><circle cx="784.3" cy="147.6" r="3"/><circle cx="115.7" cy="395.8" r="3"/><circle cx="245.7" cy="346.5" r="3"/><circle cx="375.7" cy="287.9" r="3"/><circle cx="505.7" cy="248.6" r="3"/><circle cx="635.7" cy="201.4" r="3"/><circle cx="765.7" cy="143.2" r="3"/><circle cx="97.1" cy="405.7" r="3"/><circle cx="227.1" cy="347.5" r="3"/><circle cx="357.1" cy="298.2" r="3"/><circle cx="487.1" cy="256.4" r="3"/><circle cx="617.1" cy="207.6" r="3"/><circle cx="747.1" cy="157.8" r="3"/><circle cx="78.6" cy="414.4" r="3"/><circle cx="208.6" cy="360.9" r="3"/><circle cx="338.6" cy="300.4" r="3"/><circle cx="468.6" cy="263.9" r="3"/><circle cx="598.6" cy="214.1" r="3"/><circle cx="728.6" cy="147.0" r="3"/><circle cx="60.0" cy="418.8" r="3"/><circle cx="190.0" cy="365.3" r="3"/><circle cx="320.0" cy="316.0" r="3"/><circle cx="450.0" cy="268.0" r="3"/><circle cx="580.0" cy="201.7" r="3"/><circle cx="710.0" cy="173.7" r="3"/><circle cx="840.0" cy="107.1" r="3"/><circle cx="171.4" cy="371.6" r="3"/><circle cx="301.4" cy="316.0" r="3"/><circle cx="431.4" cy="272.2" r="3"/><circle cx="561.4" cy="224.6" r="3"/><circle cx="691.4" cy="181.1" r="3"/><circle cx="821.4" cy="124.6" r="3"/><circle cx="152.9" cy="378.1" r="3"/><circle cx="282.9" cy="322.7" r="3"/><circle cx="412.9" cy="280.7" r="3"/><circle cx="542.9" cy="222.7" r="3"/><circle cx="672.9" cy="184.6" r="3"/><circle cx="802.9" cy="126.8" r="3"/><circle cx="134.3" cy="388.5" r="3"/><circle cx="264.3" cy="333.5" r="3"/><circle cx="394.3" cy="280.7" r="3"/><circle cx="524.3" cy="239.8" r="3"/><circle cx="654.3" cy="189.0" r="3"/><circle cx="784.3" cy="144.8" r="3"/><circle cx="115.7" cy="397.3" r="3"/><circle cx="245.7" cy="344.7" r="3"/><circle cx="375.7" cy="289.3" r="3"/><circle cx="505.7" cy="244.9" r="3"/><circle cx="635.7" cy="191.5" r="3"/><circle cx="765.7" cy="140.6" r="3"/><circle cx="97.1" cy="405.5" r="3"/><circle cx="227.1" cy="355.9" r="3"/><circle cx="357.1" cy="294.2" r="3"/><circle cx="487.1" cy="243.4" r="3"/><circle cx="617.1" cy="203.7" r="3"/><circle cx="747.1" cy="136.1" r="3"/><circle cx="78.6" cy="415.6" r="3"/><circle cx="208.6" cy="362.3" r="3"/><circle cx="338.6" cy="292.8" r="3"/><circle cx="468.6" cy="263.8" r="3"/><circle cx="598.6" cy="208.2" r="3"/><circle cx="728.6" cy="166.3" r="3"/><circle cx="60.0" cy="416.4" r="3"/><circle cx="190.0" cy="362.1" r="3"/><circle cx="320.0" cy="308.1" r="3"/><circle cx="450.0" cy="258.3" r="3"/><circle cx="580.0" cy="218.9" r="3"/><circle cx="710.0" cy="169.0" r="3"/><circle cx="840.0" cy="114.0" r="3"/><circle cx="171.4" cy="372.5" r="3"/><circle cx="301.4" cy="320.8" r="3"/><circle cx="431.4" cy="275.0" r="3"/><circle cx="561.4" cy="227.0" r="3"/><circle cx="691.4" cy="178.2" r="3"/><circle cx="821.4" cy="114.8" r="3"/><circle cx="152.9" cy="384.6" r="3"/><circle cx="282.9" cy="324.1" r="3"/><circle cx="412.9" cy="281.4" r="3"/><circle cx="542.9" cy="221.6" r="3"/><circle cx="672.9" cy="188.6" r="3"/><circle cx="802.9" cy="136.6" r="3"/><circle cx="134.3" cy="383.0" r="3"/><circle cx="264.3" cy="335.8" r="3"/><circle cx="394.3" cy="287.6" r="3"/><circle cx="524.3" cy="245.5" r="3"/><circle cx="654.3" cy="195.6" r="3"/><circle cx="784.3" cy="144.7" r="3"/><circle cx="115.7" cy="399.7" r="3"/><circle cx="245.7" cy="341.0" r="3"/><circle cx="375.7" cy="291.1" r="3"/><circle cx="505.7" cy="242.9" r="3"/><circle cx="635.7" cy="190.6" r="3"/><circle cx="765.7" cy="143.8" r="3"/><text x="450.0" y="468" text-anchor="middle">hash updates</text><text x="16" y="240.0" transform="rotate(-90 16 240.0)" text-anchor="middle">ns</text></svg>