<svg xmlns="http://www.w3.org/2000/svg" width="900" height="480" viewBox="0 0 900 480"><style>text{font:14px sans-serif}circle{fill:#2563eb;opacity:.65}line{stroke:#111}</style><text x="450.0" y="25" text-anchor="middle">RUVMR vs runtime</text><line x1="60" y1="420" x2="840" y2="420"/><line x1="60" y1="60" x2="60" y2="420"/><circle cx="60.0" cy="64.0" r="3"/><circle cx="840.0" cy="417.4" r="3"/><circle cx="617.1" cy="396.7" r="3"/><circle cx="146.7" cy="238.4" r="3"/><circle cx="105.9" cy="159.2" r="3"/><circle cx="79.0" cy="120.6" r="3"/><circle cx="60.0" cy="70.8" r="3"/><circle cx="394.3" cy="352.0" r="3"/><circle cx="230.1" cy="292.7" r="3"/><circle cx="154.3" cy="228.0" r="3"/><circle cx="110.6" cy="183.9" r="3"/><circle cx="82.3" cy="129.6" r="3"/><circle cx="62.4" cy="60.0" r="3"/><circle cx="434.8" cy="363.8" r="3"/><circle cx="245.7" cy="301.1" r="3"/><circle cx="162.5" cy="249.8" r="3"/><circle cx="115.7" cy="199.8" r="3"/><circle cx="85.7" cy="130.7" r="3"/><circle cx="64.8" cy="92.5" r="3"/><circle cx="483.4" cy="378.9" r="3"/><circle cx="263.2" cy="316.9" r="3"/><circle cx="171.4" cy="256.9" r="3"/><circle cx="121.1" cy="207.6" r="3"/><circle cx="89.3" cy="146.2" r="3"/><circle cx="67.4" cy="89.3" r="3"/><circle cx="542.9" cy="387.9" r="3"/><circle cx="282.9" cy="329.5" r="3"/><circle cx="181.1" cy="266.4" r="3"/><circle cx="126.9" cy="204.6" r="3"/><circle cx="93.1" cy="145.2" r="3"/><circle cx="70.1" cy="106.7" r="3"/><circle cx="617.1" cy="395.8" r="3"/><circle cx="305.1" cy="334.1" r="3"/><circle cx="191.7" cy="271.9" r="3"/><circle cx="133.0" cy="219.3" r="3"/><circle cx="97.1" cy="157.7" r="3"/><circle cx="73.0" cy="107.4" r="3"/><circle cx="712.7" cy="411.5" r="3"/><circle cx="330.6" cy="338.2" r="3"/><circle cx="203.3" cy="277.0" r="3"/><circle cx="139.6" cy="225.5" r="3"/><circle cx="101.4" cy="173.4" r="3"/><circle cx="75.9" cy="116.1" r="3"/><circle cx="840.0" cy="417.0" r="3"/><circle cx="360.0" cy="350.6" r="3"/><circle cx="216.0" cy="284.4" r="3"/><circle cx="146.7" cy="234.7" r="3"/><circle cx="105.9" cy="178.7" r="3"/><circle cx="79.0" cy="120.1" r="3"/><circle cx="60.0" cy="72.3" r="3"/><circle cx="394.3" cy="354.9" r="3"/><circle cx="230.1" cy="280.8" r="3"/><circle cx="154.3" cy="242.8" r="3"/><circle cx="110.6" cy="185.6" r="3"/><circle cx="82.3" cy="132.6" r="3"/><circle cx="62.4" cy="83.2" r="3"/><circle cx="434.8" cy="365.3" r="3"/><circle cx="245.7" cy="306.2" r="3"/><circle cx="162.5" cy="249.4" r="3"/><circle cx="115.7" cy="199.0" r="3"/><circle cx="85.7" cy="116.1" r="3"/><circle cx="64.8" cy="87.5" r="3"/><circle cx="483.4" cy="373.6" r="3"/><circle cx="263.2" cy="315.5" r="3"/><circle cx="171.4" cy="253.6" r="3"/><circle cx="121.1" cy="203.7" r="3"/><circle cx="89.3" cy="136.4" r="3"/><circle cx="67.4" cy="94.8" r="3"/><circle cx="542.9" cy="370.3" r="3"/><circle cx="282.9" cy="317.5" r="3"/><circle cx="181.1" cy="266.1" r="3"/><circle cx="126.9" cy="206.4" r="3"/><circle cx="93.1" cy="145.5" r="3"/><circle cx="70.1" cy="99.5" r="3"/><circle cx="617.1" cy="397.3" r="3"/><circle cx="305.1" cy="332.7" r="3"/><circle cx="191.7" cy="270.0" r="3"/><circle cx="133.0" cy="220.0" r="3"/><circle cx="97.1" cy="166.2" r="3"/><circle cx="73.0" cy="109.0" r="3"/><circle cx="712.7" cy="405.7" r="3"/><circle cx="330.6" cy="344.2" r="3"/><circle cx="203.3" cy="283.1" r="3"/><circle cx="139.6" cy="230.3" r="3"/><circle cx="101.4" cy="173.2" r="3"/><circle cx="75.9" cy="114.7" r="3"/><circle cx="840.0" cy="420.0" r="3"/><circle cx="360.0" cy="352.1" r="3"/><circle cx="216.0" cy="285.4" r="3"/><circle cx="146.7" cy="241.2" r="3"/><circle cx="105.9" cy="176.1" r="3"/><circle cx="79.0" cy="123.7" r="3"/><circle cx="60.0" cy="74.8" r="3"/><circle cx="394.3" cy="357.0" r="3"/><circle cx="230.1" cy="298.4" r="3"/><circle cx="154.3" cy="246.0" r="3"/><circle cx="110.6" cy="188.0" r="3"/><circle cx="82.3" cy="135.4" r="3"/><circle cx="62.4" cy="78.0" r="3"/><circle cx="434.8" cy="368.4" r="3"/><circle cx="245.7" cy="306.2" r="3"/><circle cx="162.5" cy="255.2" r="3"/><circle cx="115.7" cy="193.8" r="3"/><circle cx="85.7" cy="135.8" r="3"/><circle cx="64.8" cy="94.5" r="3"/><circle cx="483.4" cy="370.3" r="3"/><circle cx="263.2" cy="316.9" r="3"/><circle cx="171.4" cy="262.3" r="3"/><circle cx="121.1" cy="211.1" r="3"/><circle cx="89.3" cy="147.5" r="3"/><circle cx="67.4" cy="101.6" r="3"/><circle cx="542.9" cy="383.3" r="3"/><circle cx="282.9" cy="322.8" r="3"/><circle cx="181.1" cy="270.3" r="3"/><circle cx="126.9" cy="210.2" r="3"/><circle cx="93.1" cy="157.4" r="3"/><circle cx="70.1" cy="108.3" r="3"/><text x="450.0" y="468" text-anchor="middle">RUVMR</text><text x="16" y="240.0" transform="rotate(-90 16 240.0)" text-anchor="middle">ns</text></svg>