<svg xmlns="http://www.w3.org/2000/svg" width="900" height="480" viewBox="0 0 900 480"><style>text{font:14px sans-serif}circle{fill:#2563eb;opacity:.65}line{stroke:#111}</style><text x="450.0" y="25" text-anchor="middle">RUOR old vs fast</text><line x1="60" y1="420" x2="840" y2="420"/><line x1="60" y1="60" x2="60" y2="420"/><circle cx="588.0" cy="88.3" r="3"/><circle cx="100.7" cy="379.0" r="3"/><circle cx="249.0" cy="324.3" r="3"/><circle cx="611.9" cy="180.8" r="3"/><circle cx="822.4" cy="88.4" r="3"/><circle cx="726.7" cy="122.3" r="3"/><circle cx="751.2" cy="151.3" r="3"/><circle cx="446.5" cy="294.1" r="3"/><circle cx="564.3" cy="235.9" r="3"/><circle cx="729.6" cy="141.5" r="3"/><circle cx="662.5" cy="150.9" r="3"/><circle cx="701.7" cy="155.5" r="3"/><circle cx="825.4" cy="98.6" r="3"/><circle cx="334.3" cy="255.7" r="3"/><circle cx="483.8" cy="192.1" r="3"/><circle cx="587.6" cy="124.4" r="3"/><circle cx="663.8" cy="150.5" r="3"/><circle cx="721.8" cy="125.8" r="3"/><circle cx="692.8" cy="123.7" r="3"/><circle cx="217.0" cy="330.4" r="3"/><circle cx="529.7" cy="174.3" r="3"/><circle cx="645.2" cy="204.2" r="3"/><circle cx="632.4" cy="126.6" r="3"/><circle cx="718.2" cy="98.1" r="3"/><circle cx="752.9" cy="64.1" r="3"/><circle cx="306.3" cy="363.1" r="3"/><circle cx="451.0" cy="229.2" r="3"/><circle cx="557.5" cy="219.9" r="3"/><circle cx="718.3" cy="131.5" r="3"/><circle cx="771.1" cy="116.2" r="3"/><circle cx="695.0" cy="187.3" r="3"/><circle cx="265.1" cy="341.8" r="3"/><circle cx="471.5" cy="237.7" r="3"/><circle cx="545.0" cy="212.0" r="3"/><circle cx="680.9" cy="114.3" r="3"/><circle cx="753.0" cy="148.5" r="3"/><circle cx="717.6" cy="101.0" r="3"/><circle cx="225.9" cy="413.4" r="3"/><circle cx="484.6" cy="244.7" r="3"/><circle cx="708.1" cy="152.8" r="3"/><circle cx="656.9" cy="125.5" r="3"/><circle cx="630.1" cy="129.8" r="3"/><circle cx="740.2" cy="115.2" r="3"/><circle cx="60.0" cy="410.4" r="3"/><circle cx="405.7" cy="322.5" r="3"/><circle cx="636.6" cy="244.6" r="3"/><circle cx="596.6" cy="134.1" r="3"/><circle cx="725.6" cy="191.4" r="3"/><circle cx="728.5" cy="122.1" r="3"/><circle cx="710.8" cy="61.3" r="3"/><circle cx="367.3" cy="304.7" r="3"/><circle cx="733.4" cy="134.2" r="3"/><circle cx="675.0" cy="110.5" r="3"/><circle cx="665.9" cy="97.0" r="3"/><circle cx="719.9" cy="73.2" r="3"/><circle cx="721.3" cy="100.2" r="3"/><circle cx="437.6" cy="239.7" r="3"/><circle cx="555.3" cy="197.2" r="3"/><circle cx="590.2" cy="115.5" r="3"/><circle cx="621.3" cy="155.3" r="3"/><circle cx="840.0" cy="86.3" r="3"/><circle cx="727.3" cy="80.7" r="3"/><circle cx="331.4" cy="297.3" r="3"/><circle cx="590.7" cy="192.8" r="3"/><circle cx="624.3" cy="167.1" r="3"/><circle cx="658.5" cy="67.6" r="3"/><circle cx="777.7" cy="107.7" r="3"/><circle cx="732.5" cy="109.6" r="3"/><circle cx="460.2" cy="304.6" r="3"/><circle cx="483.8" cy="186.5" r="3"/><circle cx="544.2" cy="158.0" r="3"/><circle cx="680.4" cy="154.5" r="3"/><circle cx="735.0" cy="108.4" r="3"/><circle cx="691.1" cy="93.1" r="3"/><circle cx="185.5" cy="360.8" r="3"/><circle cx="506.6" cy="147.3" r="3"/><circle cx="574.7" cy="117.7" r="3"/><circle cx="686.5" cy="151.5" r="3"/><circle cx="705.0" cy="134.4" r="3"/><circle cx="736.4" cy="152.2" r="3"/><circle cx="200.4" cy="315.5" r="3"/><circle cx="549.1" cy="218.2" r="3"/><circle cx="554.0" cy="168.1" r="3"/><circle cx="598.1" cy="101.4" r="3"/><circle cx="701.4" cy="128.2" r="3"/><circle cx="732.2" cy="113.6" r="3"/><circle cx="70.9" cy="420.0" r="3"/><circle cx="521.2" cy="177.3" r="3"/><circle cx="584.3" cy="200.4" r="3"/><circle cx="611.6" cy="167.6" r="3"/><circle cx="715.8" cy="76.2" r="3"/><circle cx="755.4" cy="120.6" r="3"/><circle cx="689.2" cy="91.0" r="3"/><circle cx="493.0" cy="303.3" r="3"/><circle cx="533.9" cy="261.5" r="3"/><circle cx="645.3" cy="200.1" r="3"/><circle cx="707.5" cy="116.5" r="3"/><circle cx="723.8" cy="148.3" r="3"/><circle cx="719.0" cy="78.4" r="3"/><circle cx="537.2" cy="255.8" r="3"/><circle cx="596.1" cy="234.7" r="3"/><circle cx="537.3" cy="152.6" r="3"/><circle cx="701.7" cy="149.3" r="3"/><circle cx="771.1" cy="106.6" r="3"/><circle cx="683.0" cy="77.6" r="3"/><circle cx="414.1" cy="384.4" r="3"/><circle cx="571.2" cy="183.7" r="3"/><circle cx="603.0" cy="164.8" r="3"/><circle cx="619.1" cy="137.2" r="3"/><circle cx="745.2" cy="126.1" r="3"/><circle cx="718.9" cy="60.0" r="3"/><circle cx="428.1" cy="307.5" r="3"/><circle cx="578.1" cy="222.9" r="3"/><circle cx="525.7" cy="198.9" r="3"/><circle cx="657.7" cy="140.8" r="3"/><circle cx="707.2" cy="96.9" r="3"/><circle cx="712.1" cy="119.0" r="3"/><text x="450.0" y="468" text-anchor="middle">RUOR old</text><text x="16" y="240.0" transform="rotate(-90 16 240.0)" text-anchor="middle">RUOR fast</text></svg>