<svg xmlns="http://www.w3.org/2000/svg" width="900" height="480" viewBox="0 0 900 480"><style>text{font:14px sans-serif}circle{fill:#2563eb;opacity:.65}line{stroke:#111}</style><text x="450.0" y="25" text-anchor="middle">Semantic Hash speedup by case</text><line x1="60" y1="420" x2="840" y2="420"/><line x1="60" y1="60" x2="60" y2="420"/><circle cx="60.0" cy="392.8" r="3"/><circle cx="66.7" cy="154.7" r="3"/><circle cx="73.4" cy="144.6" r="3"/><circle cx="80.2" cy="204.5" r="3"/><circle cx="86.9" cy="162.3" r="3"/><circle cx="93.6" cy="192.4" r="3"/><circle cx="100.3" cy="174.9" r="3"/><circle cx="107.1" cy="116.0" r="3"/><circle cx="113.8" cy="149.4" r="3"/><circle cx="120.5" cy="72.8" r="3"/><circle cx="127.2" cy="131.1" r="3"/><circle cx="134.0" cy="179.7" r="3"/><circle cx="140.7" cy="190.3" r="3"/><circle cx="147.4" cy="173.4" r="3"/><circle cx="154.1" cy="122.4" r="3"/><circle cx="160.9" cy="91.0" r="3"/><circle cx="167.6" cy="123.0" r="3"/><circle cx="174.3" cy="183.7" r="3"/><circle cx="181.0" cy="122.1" r="3"/><circle cx="187.8" cy="163.4" r="3"/><circle cx="194.5" cy="190.6" r="3"/><circle cx="201.2" cy="123.3" r="3"/><circle cx="207.9" cy="142.9" r="3"/><circle cx="214.7" cy="152.3" r="3"/><circle cx="221.4" cy="101.6" r="3"/><circle cx="228.1" cy="219.1" r="3"/><circle cx="234.8" cy="223.1" r="3"/><circle cx="241.6" cy="192.2" r="3"/><circle cx="248.3" cy="173.4" r="3"/><circle cx="255.0" cy="160.1" r="3"/><circle cx="261.7" cy="192.4" r="3"/><circle cx="268.4" cy="148.8" r="3"/><circle cx="275.2" cy="179.4" r="3"/><circle cx="281.9" cy="172.2" r="3"/><circle cx="288.6" cy="153.6" r="3"/><circle cx="295.3" cy="180.7" r="3"/><circle cx="302.1" cy="169.2" r="3"/><circle cx="308.8" cy="139.8" r="3"/><circle cx="315.5" cy="205.2" r="3"/><circle cx="322.2" cy="152.9" r="3"/><circle cx="329.0" cy="131.7" r="3"/><circle cx="335.7" cy="178.7" r="3"/><circle cx="342.4" cy="206.5" r="3"/><circle cx="349.1" cy="420.0" r="3"/><circle cx="355.9" cy="229.1" r="3"/><circle cx="362.6" cy="213.5" r="3"/><circle cx="369.3" cy="199.1" r="3"/><circle cx="376.0" cy="182.0" r="3"/><circle cx="382.8" cy="223.9" r="3"/><circle cx="389.5" cy="200.4" r="3"/><circle cx="396.2" cy="237.8" r="3"/><circle cx="402.9" cy="155.5" r="3"/><circle cx="409.7" cy="159.8" r="3"/><circle cx="416.4" cy="168.7" r="3"/><circle cx="423.1" cy="188.5" r="3"/><circle cx="429.8" cy="197.9" r="3"/><circle cx="436.6" cy="200.4" r="3"/><circle cx="443.3" cy="152.5" r="3"/><circle cx="450.0" cy="151.1" r="3"/><circle cx="456.7" cy="174.7" r="3"/><circle cx="463.4" cy="181.3" r="3"/><circle cx="470.2" cy="197.1" r="3"/><circle cx="476.9" cy="244.4" r="3"/><circle cx="483.6" cy="335.9" r="3"/><circle cx="490.3" cy="324.0" r="3"/><circle cx="497.1" cy="190.9" r="3"/><circle cx="503.8" cy="204.0" r="3"/><circle cx="510.5" cy="246.9" r="3"/><circle cx="517.2" cy="243.0" r="3"/><circle cx="524.0" cy="147.9" r="3"/><circle cx="530.7" cy="228.5" r="3"/><circle cx="537.4" cy="335.3" r="3"/><circle cx="544.1" cy="176.1" r="3"/><circle cx="550.9" cy="147.4" r="3"/><circle cx="557.6" cy="308.4" r="3"/><circle cx="564.3" cy="140.1" r="3"/><circle cx="571.0" cy="145.0" r="3"/><circle cx="577.8" cy="163.4" r="3"/><circle cx="584.5" cy="190.5" r="3"/><circle cx="591.2" cy="307.4" r="3"/><circle cx="597.9" cy="261.0" r="3"/><circle cx="604.7" cy="202.1" r="3"/><circle cx="611.4" cy="199.5" r="3"/><circle cx="618.1" cy="191.7" r="3"/><circle cx="624.8" cy="169.4" r="3"/><circle cx="631.6" cy="190.2" r="3"/><circle cx="638.3" cy="286.6" r="3"/><circle cx="645.0" cy="60.0" r="3"/><circle cx="651.7" cy="181.7" r="3"/><circle cx="658.4" cy="280.4" r="3"/><circle cx="665.2" cy="175.7" r="3"/><circle cx="671.9" cy="201.8" r="3"/><circle cx="678.6" cy="186.5" r="3"/><circle cx="685.3" cy="123.5" r="3"/><circle cx="692.1" cy="250.2" r="3"/><circle cx="698.8" cy="221.5" r="3"/><circle cx="705.5" cy="166.1" r="3"/><circle cx="712.2" cy="274.7" r="3"/><circle cx="719.0" cy="207.0" r="3"/><circle cx="725.7" cy="130.6" r="3"/><circle cx="732.4" cy="176.0" r="3"/><circle cx="739.1" cy="200.7" r="3"/><circle cx="745.9" cy="135.9" r="3"/><circle cx="752.6" cy="210.3" r="3"/><circle cx="759.3" cy="163.5" r="3"/><circle cx="766.0" cy="328.7" r="3"/><circle cx="772.8" cy="191.5" r="3"/><circle cx="779.5" cy="199.1" r="3"/><circle cx="786.2" cy="200.5" r="3"/><circle cx="792.9" cy="161.6" r="3"/><circle cx="799.7" cy="213.2" r="3"/><circle cx="806.4" cy="211.2" r="3"/><circle cx="813.1" cy="161.1" r="3"/><circle cx="819.8" cy="258.1" r="3"/><circle cx="826.6" cy="208.7" r="3"/><circle cx="833.3" cy="167.7" r="3"/><circle cx="840.0" cy="191.2" r="3"/><text x="450.0" y="468" text-anchor="middle">case</text><text x="16" y="240.0" transform="rotate(-90 16 240.0)" text-anchor="middle">speedup</text></svg>