<svg xmlns="http://www.w3.org/2000/svg" width="900" height="480" viewBox="0 0 900 480"><style>text{font:14px sans-serif}circle{fill:#2563eb;opacity:.65}line{stroke:#111}</style><text x="450.0" y="25" text-anchor="middle">RU count vs VM instructions</text><line x1="60" y1="420" x2="840" y2="420"/><line x1="60" y1="60" x2="60" y2="420"/><circle cx="840.0" cy="420.0" r="3"/><circle cx="60.0" cy="420.0" r="3"/><circle cx="97.1" cy="420.0" r="3"/><circle cx="450.0" cy="420.0" r="3"/><circle cx="580.0" cy="420.0" r="3"/><circle cx="710.0" cy="420.0" r="3"/><circle cx="840.0" cy="420.0" r="3"/><circle cx="171.4" cy="420.0" r="3"/><circle cx="301.4" cy="420.0" r="3"/><circle cx="431.4" cy="420.0" r="3"/><circle cx="561.4" cy="420.0" r="3"/><circle cx="691.4" cy="420.0" r="3"/><circle cx="821.4" cy="420.0" r="3"/><circle cx="152.9" cy="420.0" r="3"/><circle cx="282.9" cy="420.0" r="3"/><circle cx="412.9" cy="420.0" r="3"/><circle cx="542.9" cy="420.0" r="3"/><circle cx="672.9" cy="420.0" r="3"/><circle cx="802.9" cy="420.0" r="3"/><circle cx="134.3" cy="420.0" r="3"/><circle cx="264.3" cy="420.0" r="3"/><circle cx="394.3" cy="420.0" r="3"/><circle cx="524.3" cy="420.0" r="3"/><circle cx="654.3" cy="420.0" r="3"/><circle cx="784.3" cy="420.0" r="3"/><circle cx="115.7" cy="420.0" r="3"/><circle cx="245.7" cy="420.0" r="3"/><circle cx="375.7" cy="420.0" r="3"/><circle cx="505.7" cy="420.0" r="3"/><circle cx="635.7" cy="420.0" r="3"/><circle cx="765.7" cy="420.0" r="3"/><circle cx="97.1" cy="420.0" r="3"/><circle cx="227.1" cy="420.0" r="3"/><circle cx="357.1" cy="420.0" r="3"/><circle cx="487.1" cy="420.0" r="3"/><circle cx="617.1" cy="420.0" r="3"/><circle cx="747.1" cy="420.0" r="3"/><circle cx="78.6" cy="420.0" r="3"/><circle cx="208.6" cy="420.0" r="3"/><circle cx="338.6" cy="420.0" r="3"/><circle cx="468.6" cy="420.0" r="3"/><circle cx="598.6" cy="420.0" r="3"/><circle cx="728.6" cy="420.0" r="3"/><circle cx="60.0" cy="420.0" r="3"/><circle cx="190.0" cy="420.0" r="3"/><circle cx="320.0" cy="420.0" r="3"/><circle cx="450.0" cy="420.0" r="3"/><circle cx="580.0" cy="420.0" r="3"/><circle cx="710.0" cy="420.0" r="3"/><circle cx="840.0" cy="420.0" r="3"/><circle cx="171.4" cy="420.0" r="3"/><circle cx="301.4" cy="420.0" r="3"/><circle cx="431.4" cy="420.0" r="3"/><circle cx="561.4" cy="420.0" r="3"/><circle cx="691.4" cy="420.0" r="3"/><circle cx="821.4" cy="420.0" r="3"/><circle cx="152.9" cy="420.0" r="3"/><circle cx="282.9" cy="420.0" r="3"/><circle cx="412.9" cy="420.0" r="3"/><circle cx="542.9" cy="420.0" r="3"/><circle cx="672.9" cy="420.0" r="3"/><circle cx="802.9" cy="420.0" r="3"/><circle cx="134.3" cy="420.0" r="3"/><circle cx="264.3" cy="420.0" r="3"/><circle cx="394.3" cy="420.0" r="3"/><circle cx="524.3" cy="420.0" r="3"/><circle cx="654.3" cy="420.0" r="3"/><circle cx="784.3" cy="420.0" r="3"/><circle cx="115.7" cy="420.0" r="3"/><circle cx="245.7" cy="420.0" r="3"/><circle cx="375.7" cy="420.0" r="3"/><circle cx="505.7" cy="420.0" r="3"/><circle cx="635.7" cy="420.0" r="3"/><circle cx="765.7" cy="420.0" r="3"/><circle cx="97.1" cy="420.0" r="3"/><circle cx="227.1" cy="420.0" r="3"/><circle cx="357.1" cy="420.0" r="3"/><circle cx="487.1" cy="420.0" r="3"/><circle cx="617.1" cy="420.0" r="3"/><circle cx="747.1" cy="420.0" r="3"/><circle cx="78.6" cy="420.0" r="3"/><circle cx="208.6" cy="420.0" r="3"/><circle cx="338.6" cy="420.0" r="3"/><circle cx="468.6" cy="420.0" r="3"/><circle cx="598.6" cy="420.0" r="3"/><circle cx="728.6" cy="420.0" r="3"/><circle cx="60.0" cy="420.0" r="3"/><circle cx="190.0" cy="420.0" r="3"/><circle cx="320.0" cy="420.0" r="3"/><circle cx="450.0" cy="420.0" r="3"/><circle cx="580.0" cy="420.0" r="3"/><circle cx="710.0" cy="420.0" r="3"/><circle cx="840.0" cy="420.0" r="3"/><circle cx="171.4" cy="420.0" r="3"/><circle cx="301.4" cy="420.0" r="3"/><circle cx="431.4" cy="420.0" r="3"/><circle cx="561.4" cy="420.0" r="3"/><circle cx="691.4" cy="420.0" r="3"/><circle cx="821.4" cy="420.0" r="3"/><circle cx="152.9" cy="420.0" r="3"/><circle cx="282.9" cy="420.0" r="3"/><circle cx="412.9" cy="420.0" r="3"/><circle cx="542.9" cy="420.0" r="3"/><circle cx="672.9" cy="420.0" r="3"/><circle cx="802.9" cy="420.0" r="3"/><circle cx="134.3" cy="420.0" r="3"/><circle cx="264.3" cy="420.0" r="3"/><circle cx="394.3" cy="420.0" r="3"/><circle cx="524.3" cy="420.0" r="3"/><circle cx="654.3" cy="420.0" r="3"/><circle cx="784.3" cy="420.0" r="3"/><circle cx="115.7" cy="420.0" r="3"/><circle cx="245.7" cy="420.0" r="3"/><circle cx="375.7" cy="420.0" r="3"/><circle cx="505.7" cy="420.0" r="3"/><circle cx="635.7" cy="420.0" r="3"/><circle cx="765.7" cy="420.0" r="3"/><text x="450.0" y="468" text-anchor="middle">RU count</text><text x="16" y="240.0" transform="rotate(-90 16 240.0)" text-anchor="middle">instructions</text></svg>